<svg xmlns="http://www.w3.org/2000/svg" xmlns:xlink="http://www.w3.org/1999/xlink" fill="none" version="1.1" width="120" height="119.96875" viewBox="0 0 120 119.96875"><defs><linearGradient x1="0.5" y1="0" x2="0.5" y2="1.1888574361801147" id="master_svg0_1982_16431"><stop offset="0%" stop-color="#8190F9" stop-opacity="1"/><stop offset="100%" stop-color="#B777F7" stop-opacity="1"/></linearGradient></defs><g><g><path d="M52.6819,19.4517C50.3358,27.3132,46.0906,34.4764,40.3211,40.3091C34.4884,46.0786,27.3252,50.3238,19.4637,52.6699L1.24648,58.2743C0.504185,58.5102,0,59.1995,0,59.9784C-4.44471e-7,60.7573,0.504186,61.4465,1.24648,61.6825L19.4637,67.2748C27.6482,69.795,34.7047,74.0073,40.4891,79.8037C46.1175,85.564,50.2217,92.5125,52.6819,100.505L58.2862,118.722C58.5222,119.465,59.2115,119.969,59.9904,119.969C60.7693,119.969,61.4585,119.465,61.6945,118.722L67.2868,100.505C69.795,92.3445,74.0193,85.3,79.6477,79.6717C85.4853,73.8884,92.6567,69.6309,100.529,67.2748L118.734,61.6945C119.486,61.4648,120,60.7707,120,59.9844C120,59.198,119.486,58.504,118.734,58.2743L100.517,52.6819C92.6619,50.3372,85.5062,46.0916,79.6837,40.3211C73.8997,34.486,69.6455,27.3134,67.2989,19.4397L61.6945,1.24648C61.4585,0.504186,60.7693,0,59.9904,0C59.2115,5.08216e-7,58.5222,0.504186,58.2862,1.24648L52.6699,19.4517L52.6819,19.4517Z" fill="url(#master_svg0_1982_16431)" fill-opacity="1"/></g></g></svg>