<svg width="87" height="87" viewBox="0 0 87 87" fill="none" xmlns="http://www.w3.org/2000/svg">
    <style>
        @media (prefers-color-scheme: dark) {
            #circle { fill: black }
            #mark { fill: white }
        }
    </style>

    <g clip-path="url(#clip0_4237_44675)">
        <rect id="circle" x="0.361328" y="0.0498047" width="86.6387" height="86.6387" rx="43.3193" fill="white"/>
        <path id="mark" d="M36.363 35.499V29.4581C36.363 29.0515 36.4792 28.7611 36.8858 28.5287L48.0962 22.0232C49.6065 21.1519 51.5233 20.7453 53.382 20.7453C60.4684 20.7453 64.941 26.2053 64.941 32.072C64.941 32.5366 64.941 33.1756 64.8249 33.6984L53.0916 26.8443C52.5107 26.4958 51.8718 26.4377 51.1748 26.8443L36.363 35.499ZM62.2691 56.9325V43.5148C62.2691 42.7597 61.9787 42.2369 61.2816 41.8303L46.4118 33.1756L51.6395 30.1551C51.9299 29.9809 52.3946 29.9809 52.685 30.1551L63.9536 36.6607C67.1483 38.5194 69.3555 42.5854 69.3555 46.4772C69.3555 51.0659 66.5674 55.3061 62.2691 56.9325ZM33.2845 45.3735L28.1148 42.295C27.7082 42.0627 27.5921 41.7722 27.5921 41.3656V28.4126C27.5921 22.0813 32.4132 17.3183 38.9768 17.3183C41.5326 17.3183 43.9722 18.1895 45.9471 19.7578L34.2719 26.5538C33.5749 26.9604 33.2845 27.4832 33.2845 28.2383V45.3735ZM43.3913 51.1821L36.363 47.2323V38.868L43.3913 34.9181L50.3616 38.868V47.2323L43.3913 51.1821ZM47.7477 68.782C45.192 68.782 42.7524 67.9107 40.7775 66.3424L52.4527 59.5464C53.1497 59.1398 53.4401 58.617 53.4401 57.8619V40.7267L58.6678 43.8052C59.0744 44.0376 59.1906 44.328 59.1906 44.7346V57.6877C59.1906 64.019 54.3114 68.782 47.7477 68.782ZM34.0396 55.9451L22.771 49.4395C19.5763 47.5808 17.369 43.5148 17.369 39.6231C17.369 34.9762 20.2152 30.7941 24.5135 29.1677V42.6435C24.5135 43.3986 24.804 43.9214 25.501 44.328L40.3128 52.9246L35.0851 55.9451C34.7947 56.1193 34.33 56.1193 34.0396 55.9451ZM33.3425 65.3549C26.6627 65.3549 21.7835 60.3596 21.7835 54.1444C21.7835 53.5636 21.8416 52.9827 21.8997 52.46L33.5749 59.1979C34.2719 59.6045 34.8528 59.6045 35.5498 59.1979L50.3616 50.6012V56.6421C50.3616 57.0487 50.2454 57.3391 49.8388 57.5715L38.6283 64.0771C37.1181 64.9483 35.2013 65.3549 33.3425 65.3549ZM47.7477 71.9186C54.718 71.9186 60.5265 66.9232 61.8044 60.3015C68.31 58.6751 72.4921 52.6342 72.4921 46.4772C72.4921 42.4112 70.7496 38.5194 67.5549 35.6733C67.8453 34.4535 68.0776 33.1756 68.0776 31.9558C68.0776 23.7657 61.3978 17.6087 53.7305 17.6087C52.1622 17.6087 50.5939 17.8991 49.0837 18.4219C46.4699 15.808 42.9266 14.1816 38.9768 14.1816C32.0066 14.1816 26.198 19.177 24.9201 25.7987C18.4146 27.4251 14.2324 33.466 14.2324 39.6231C14.2324 43.6891 15.975 47.5808 19.1697 50.427C18.8793 51.6468 18.6469 52.9246 18.6469 54.1444C18.6469 62.3345 25.3267 68.4915 32.994 68.4915C34.5623 68.4915 36.1306 68.2011 37.6409 67.6783C40.2547 70.2922 43.7979 71.9186 47.7477 71.9186Z" fill="black"/>
    </g>
    <defs>
        <clipPath id="clip0_4237_44675">
            <rect x="0.361328" y="0.0498047" width="86.6387" height="86.6387" rx="43.3193" fill="white"/>
        </clipPath>
    </defs>
</svg>
